<svg xmlns="http://www.w3.org/2000/svg" xmlns:xlink="http://www.w3.org/1999/xlink" width="500" zoomAndPan="magnify" viewBox="0 0 375 374.999991" height="500" preserveAspectRatio="xMidYMid meet" version="1.0"><defs><g/><clipPath id="c6ff561c4f"><path d="M 115 116 L 260 116 L 260 259.363281 L 115 259.363281 Z M 115 116 " clip-rule="nonzero"/></clipPath><clipPath id="76c9543451"><path d="M 197.359375 211.078125 C 188.59375 210.699219 180.449219 207.144531 174.234375 200.941406 C 167.828125 194.546875 164.433594 186.269531 164.054688 177.878906 C 162.128906 178.957031 160.363281 180.292969 158.785156 181.871094 L 133.558594 207.046875 C 128.964844 211.632812 126.433594 217.757812 126.433594 224.292969 C 126.433594 230.828125 128.964844 236.953125 133.558594 241.539062 C 143.085938 251.046875 158.589844 251.046875 168.117188 241.539062 L 193.339844 216.359375 C 194.933594 214.769531 196.28125 212.992188 197.359375 211.078125 Z M 164.042969 175.050781 C 164.117188 172.945312 164.378906 170.84375 164.832031 168.777344 C 160.453125 170.382812 156.445312 172.933594 153.136719 176.234375 L 127.914062 201.410156 C 115.273438 214.027344 115.273438 234.558594 127.914062 247.175781 C 134.011719 253.261719 142.152344 256.613281 150.835938 256.613281 C 159.523438 256.613281 167.664062 253.261719 173.761719 247.175781 L 198.988281 221.996094 C 202.855469 218.136719 205.621094 213.453125 207.125 208.332031 C 207.140625 208.230469 207.171875 208.132812 207.210938 208.039062 C 208.023438 205.175781 208.441406 202.179688 208.441406 199.117188 C 208.441406 190.445312 205.085938 182.320312 198.988281 176.234375 C 192.960938 170.21875 184.984375 166.875 176.425781 166.796875 C 175.675781 168.578125 175.144531 170.433594 174.835938 172.316406 C 182.988281 172.074219 189.636719 174.628906 195.113281 180.097656 C 200.183594 185.15625 202.976562 191.910156 202.976562 199.117188 C 202.976562 206.320312 200.183594 213.074219 195.113281 218.132812 L 169.890625 243.308594 C 164.636719 248.554688 157.738281 251.175781 150.835938 251.175781 C 143.9375 251.175781 137.039062 248.554688 131.785156 243.3125 C 126.714844 238.25 123.921875 231.496094 123.921875 224.292969 C 123.921875 217.089844 126.714844 210.335938 131.785156 205.277344 L 157.007812 180.097656 C 159.078125 178.035156 161.4375 176.339844 164.042969 175.050781 Z M 174.554688 174.832031 C 174.15625 181.554688 176.523438 188.410156 181.65625 193.53125 C 186.617188 198.480469 193.40625 201.027344 200.421875 200.601562 C 200.449219 200.109375 200.464844 199.613281 200.464844 199.117188 C 200.464844 192.582031 197.933594 186.457031 193.339844 181.871094 C 188.300781 176.839844 182.148438 174.53125 174.554688 174.832031 Z M 200.140625 203.125 C 199.726562 203.144531 199.316406 203.152344 198.902344 203.152344 C 191.765625 203.152344 184.957031 200.371094 179.878906 195.304688 C 169.375 184.816406 169.375 167.753906 179.878906 157.269531 L 205.105469 132.089844 C 215.613281 121.605469 232.707031 121.605469 243.210938 132.089844 C 248.28125 137.152344 251.070312 143.90625 251.070312 151.109375 C 251.070312 158.3125 248.28125 165.066406 243.210938 170.125 L 217.988281 195.304688 C 215.917969 197.367188 213.554688 199.0625 210.953125 200.351562 C 210.878906 202.457031 210.617188 204.558594 210.164062 206.625 C 214.542969 205.019531 218.550781 202.46875 221.859375 199.167969 L 247.082031 173.992188 C 259.722656 161.375 259.722656 140.84375 247.082031 128.226562 C 234.441406 115.609375 213.875 115.609375 201.234375 128.226562 L 176.007812 153.402344 C 172.074219 157.332031 169.363281 162.027344 167.878906 167.011719 C 167.863281 167.152344 167.824219 167.285156 167.765625 167.410156 C 167.003906 170.089844 166.59375 172.851562 166.539062 175.621094 C 166.566406 175.777344 166.5625 175.9375 166.53125 176.089844 C 166.480469 184.441406 169.636719 192.808594 176.007812 199.167969 C 182.035156 205.183594 190.011719 208.523438 198.570312 208.605469 C 199.304688 206.855469 199.832031 205.019531 200.140625 203.125 Z M 165.605469 165.871094 C 167.230469 160.660156 170.105469 155.753906 174.234375 151.632812 L 199.457031 126.453125 C 206.265625 119.660156 215.203125 116.261719 224.144531 116.257812 L 224.175781 116.257812 C 233.113281 116.261719 242.054688 119.660156 248.859375 126.457031 C 262.480469 140.050781 262.480469 162.167969 248.859375 175.761719 L 223.632812 200.941406 C 219.660156 204.90625 214.75 207.867188 209.390625 209.53125 C 207.765625 214.742188 204.890625 219.648438 200.761719 223.769531 L 175.539062 248.945312 C 168.964844 255.507812 160.195312 259.117188 150.835938 259.117188 C 141.480469 259.117188 132.707031 255.507812 126.136719 248.945312 C 112.519531 235.351562 112.519531 213.234375 126.136719 199.640625 L 151.363281 174.460938 C 155.335938 170.496094 160.246094 167.535156 165.605469 165.871094 Z M 177.636719 164.324219 C 186.398438 164.703125 194.546875 168.257812 200.761719 174.460938 C 207.167969 180.855469 210.5625 189.132812 210.941406 197.523438 C 212.867188 196.445312 214.632812 195.105469 216.210938 193.53125 L 241.4375 168.355469 C 246.03125 163.769531 248.5625 157.644531 248.5625 151.109375 C 248.5625 144.574219 246.03125 138.449219 241.4375 133.863281 C 231.910156 124.355469 216.40625 124.355469 206.878906 133.863281 L 181.65625 159.042969 C 180.042969 160.652344 178.703125 162.429688 177.636719 164.324219 Z M 177.636719 164.324219 " clip-rule="evenodd"/></clipPath><linearGradient x1="-8.89801" gradientTransform="matrix(0.935162, 0, 0, 0.933415, 106.42145, 106.763247)" y1="49.806275" x2="182.295479" gradientUnits="userSpaceOnUse" y2="122.894526" id="5b321d4782"><stop stop-opacity="1" stop-color="rgb(95.698547%, 31.399536%, 36.499023%)" offset="0"/><stop stop-opacity="1" stop-color="rgb(95.671082%, 31.417847%, 36.573792%)" offset="0.03125"/><stop stop-opacity="1" stop-color="rgb(95.46814%, 31.549072%, 37.115479%)" offset="0.0351563"/><stop stop-opacity="1" stop-color="rgb(95.292664%, 31.661987%, 37.582397%)" offset="0.0390625"/><stop stop-opacity="1" stop-color="rgb(95.117188%, 31.774902%, 38.049316%)" offset="0.0429688"/><stop stop-opacity="1" stop-color="rgb(94.941711%, 31.889343%, 38.516235%)" offset="0.046875"/><stop stop-opacity="1" stop-color="rgb(94.766235%, 32.002258%, 38.983154%)" offset="0.0507813"/><stop stop-opacity="1" stop-color="rgb(94.590759%, 32.116699%, 39.450073%)" offset="0.0546875"/><stop stop-opacity="1" stop-color="rgb(94.415283%, 32.229614%, 39.916992%)" offset="0.0585938"/><stop stop-opacity="1" stop-color="rgb(94.239807%, 32.342529%, 40.383911%)" offset="0.0625"/><stop stop-opacity="1" stop-color="rgb(94.064331%, 32.455444%, 40.85083%)" offset="0.0664062"/><stop stop-opacity="1" stop-color="rgb(93.888855%, 32.569885%, 41.317749%)" offset="0.0703125"/><stop stop-opacity="1" stop-color="rgb(93.713379%, 32.6828%, 41.784668%)" offset="0.0742188"/><stop stop-opacity="1" stop-color="rgb(93.537903%, 32.795715%, 42.251587%)" offset="0.078125"/><stop stop-opacity="1" stop-color="rgb(93.362427%, 32.90863%, 42.718506%)" offset="0.0820312"/><stop stop-opacity="1" stop-color="rgb(93.186951%, 33.023071%, 43.185425%)" offset="0.0859375"/><stop stop-opacity="1" stop-color="rgb(93.009949%, 33.135986%, 43.652344%)" offset="0.0898438"/><stop stop-opacity="1" stop-color="rgb(92.834473%, 33.250427%, 44.119263%)" offset="0.09375"/><stop stop-opacity="1" stop-color="rgb(92.658997%, 33.363342%, 44.586182%)" offset="0.0976562"/><stop stop-opacity="1" stop-color="rgb(92.483521%, 33.476257%, 45.053101%)" offset="0.101563"/><stop stop-opacity="1" stop-color="rgb(92.308044%, 33.589172%, 45.518494%)" offset="0.105469"/><stop stop-opacity="1" stop-color="rgb(92.132568%, 33.703613%, 45.985413%)" offset="0.109375"/><stop stop-opacity="1" stop-color="rgb(91.957092%, 33.816528%, 46.452332%)" offset="0.113281"/><stop stop-opacity="1" stop-color="rgb(91.781616%, 33.930969%, 46.91925%)" offset="0.117188"/><stop stop-opacity="1" stop-color="rgb(91.60614%, 34.043884%, 47.386169%)" offset="0.121094"/><stop stop-opacity="1" stop-color="rgb(91.430664%, 34.156799%, 47.853088%)" offset="0.125"/><stop stop-opacity="1" stop-color="rgb(91.255188%, 34.269714%, 48.320007%)" offset="0.128906"/><stop stop-opacity="1" stop-color="rgb(91.079712%, 34.384155%, 48.786926%)" offset="0.132812"/><stop stop-opacity="1" stop-color="rgb(90.904236%, 34.49707%, 49.253845%)" offset="0.136719"/><stop stop-opacity="1" stop-color="rgb(90.72876%, 34.611511%, 49.720764%)" offset="0.140625"/><stop stop-opacity="1" stop-color="rgb(90.553284%, 34.724426%, 50.187683%)" offset="0.144531"/><stop stop-opacity="1" stop-color="rgb(90.377808%, 34.837341%, 50.654602%)" offset="0.148438"/><stop stop-opacity="1" stop-color="rgb(90.202332%, 34.950256%, 51.121521%)" offset="0.152344"/><stop stop-opacity="1" stop-color="rgb(90.026855%, 35.064697%, 51.58844%)" offset="0.15625"/><stop stop-opacity="1" stop-color="rgb(89.851379%, 35.177612%, 52.055359%)" offset="0.160156"/><stop stop-opacity="1" stop-color="rgb(89.675903%, 35.292053%, 52.522278%)" offset="0.164062"/><stop stop-opacity="1" stop-color="rgb(89.500427%, 35.404968%, 52.989197%)" offset="0.167969"/><stop stop-opacity="1" stop-color="rgb(89.324951%, 35.517883%, 53.456116%)" offset="0.171875"/><stop stop-opacity="1" stop-color="rgb(89.149475%, 35.630798%, 53.923035%)" offset="0.175781"/><stop stop-opacity="1" stop-color="rgb(88.973999%, 35.745239%, 54.389954%)" offset="0.179688"/><stop stop-opacity="1" stop-color="rgb(88.798523%, 35.858154%, 54.856873%)" offset="0.183594"/><stop stop-opacity="1" stop-color="rgb(88.623047%, 35.972595%, 55.323792%)" offset="0.1875"/><stop stop-opacity="1" stop-color="rgb(88.447571%, 36.08551%, 55.79071%)" offset="0.191406"/><stop stop-opacity="1" stop-color="rgb(88.272095%, 36.198425%, 56.257629%)" offset="0.195312"/><stop stop-opacity="1" stop-color="rgb(88.096619%, 36.31134%, 56.724548%)" offset="0.199219"/><stop stop-opacity="1" stop-color="rgb(87.921143%, 36.425781%, 57.191467%)" offset="0.203125"/><stop stop-opacity="1" stop-color="rgb(87.745667%, 36.538696%, 57.658386%)" offset="0.207031"/><stop stop-opacity="1" stop-color="rgb(87.57019%, 36.651611%, 58.125305%)" offset="0.210938"/><stop stop-opacity="1" stop-color="rgb(87.394714%, 36.764526%, 58.592224%)" offset="0.214844"/><stop stop-opacity="1" stop-color="rgb(87.219238%, 36.878967%, 59.059143%)" offset="0.21875"/><stop stop-opacity="1" stop-color="rgb(87.043762%, 36.991882%, 59.526062%)" offset="0.222656"/><stop stop-opacity="1" stop-color="rgb(86.868286%, 37.106323%, 59.992981%)" offset="0.226562"/><stop stop-opacity="1" stop-color="rgb(86.69281%, 37.219238%, 60.4599%)" offset="0.230469"/><stop stop-opacity="1" stop-color="rgb(86.517334%, 37.332153%, 60.926819%)" offset="0.234375"/><stop stop-opacity="1" stop-color="rgb(86.341858%, 37.445068%, 61.393738%)" offset="0.238281"/><stop stop-opacity="1" stop-color="rgb(86.166382%, 37.559509%, 61.860657%)" offset="0.242188"/><stop stop-opacity="1" stop-color="rgb(85.990906%, 37.672424%, 62.327576%)" offset="0.246094"/><stop stop-opacity="1" stop-color="rgb(85.81543%, 37.786865%, 62.794495%)" offset="0.25"/><stop stop-opacity="1" stop-color="rgb(85.639954%, 37.89978%, 63.261414%)" offset="0.253906"/><stop stop-opacity="1" stop-color="rgb(85.464478%, 38.012695%, 63.728333%)" offset="0.257813"/><stop stop-opacity="1" stop-color="rgb(85.289001%, 38.12561%, 64.195251%)" offset="0.261719"/><stop stop-opacity="1" stop-color="rgb(85.113525%, 38.240051%, 64.66217%)" offset="0.265625"/><stop stop-opacity="1" stop-color="rgb(84.938049%, 38.352966%, 65.127563%)" offset="0.269531"/><stop stop-opacity="1" stop-color="rgb(84.762573%, 38.467407%, 65.594482%)" offset="0.273438"/><stop stop-opacity="1" stop-color="rgb(84.587097%, 38.580322%, 66.061401%)" offset="0.277344"/><stop stop-opacity="1" stop-color="rgb(84.411621%, 38.693237%, 66.52832%)" offset="0.28125"/><stop stop-opacity="1" stop-color="rgb(84.236145%, 38.806152%, 66.995239%)" offset="0.285156"/><stop stop-opacity="1" stop-color="rgb(84.060669%, 38.920593%, 67.462158%)" offset="0.289063"/><stop stop-opacity="1" stop-color="rgb(83.885193%, 39.033508%, 67.929077%)" offset="0.292969"/><stop stop-opacity="1" stop-color="rgb(83.709717%, 39.147949%, 68.395996%)" offset="0.296875"/><stop stop-opacity="1" stop-color="rgb(83.534241%, 39.260864%, 68.862915%)" offset="0.300781"/><stop stop-opacity="1" stop-color="rgb(83.358765%, 39.373779%, 69.329834%)" offset="0.304688"/><stop stop-opacity="1" stop-color="rgb(83.183289%, 39.486694%, 69.796753%)" offset="0.308594"/><stop stop-opacity="1" stop-color="rgb(83.007812%, 39.601135%, 70.263672%)" offset="0.3125"/><stop stop-opacity="1" stop-color="rgb(82.832336%, 39.71405%, 70.730591%)" offset="0.316406"/><stop stop-opacity="1" stop-color="rgb(82.65686%, 39.828491%, 71.19751%)" offset="0.320313"/><stop stop-opacity="1" stop-color="rgb(82.481384%, 39.941406%, 71.664429%)" offset="0.324219"/><stop stop-opacity="1" stop-color="rgb(82.305908%, 40.054321%, 72.131348%)" offset="0.328125"/><stop stop-opacity="1" stop-color="rgb(82.130432%, 40.167236%, 72.598267%)" offset="0.332031"/><stop stop-opacity="1" stop-color="rgb(81.954956%, 40.281677%, 73.065186%)" offset="0.335938"/><stop stop-opacity="1" stop-color="rgb(81.77948%, 40.394592%, 73.532104%)" offset="0.339844"/><stop stop-opacity="1" stop-color="rgb(81.604004%, 40.507507%, 73.999023%)" offset="0.34375"/><stop stop-opacity="1" stop-color="rgb(81.428528%, 40.620422%, 74.465942%)" offset="0.347656"/><stop stop-opacity="1" stop-color="rgb(81.253052%, 40.734863%, 74.932861%)" offset="0.351563"/><stop stop-opacity="1" stop-color="rgb(81.077576%, 40.847778%, 75.39978%)" offset="0.355469"/><stop stop-opacity="1" stop-color="rgb(80.9021%, 40.962219%, 75.866699%)" offset="0.359375"/><stop stop-opacity="1" stop-color="rgb(80.726624%, 41.075134%, 76.333618%)" offset="0.363281"/><stop stop-opacity="1" stop-color="rgb(80.551147%, 41.188049%, 76.800537%)" offset="0.367188"/><stop stop-opacity="1" stop-color="rgb(80.375671%, 41.300964%, 77.267456%)" offset="0.371094"/><stop stop-opacity="1" stop-color="rgb(80.200195%, 41.415405%, 77.734375%)" offset="0.375"/><stop stop-opacity="1" stop-color="rgb(80.024719%, 41.52832%, 78.201294%)" offset="0.378906"/><stop stop-opacity="1" stop-color="rgb(79.849243%, 41.642761%, 78.668213%)" offset="0.382813"/><stop stop-opacity="1" stop-color="rgb(79.673767%, 41.755676%, 79.135132%)" offset="0.386719"/><stop stop-opacity="1" stop-color="rgb(79.498291%, 41.868591%, 79.602051%)" offset="0.390625"/><stop stop-opacity="1" stop-color="rgb(79.322815%, 41.981506%, 80.06897%)" offset="0.394531"/><stop stop-opacity="1" stop-color="rgb(79.147339%, 42.095947%, 80.535889%)" offset="0.398438"/><stop stop-opacity="1" stop-color="rgb(78.971863%, 42.208862%, 81.002808%)" offset="0.402344"/><stop stop-opacity="1" stop-color="rgb(78.796387%, 42.323303%, 81.469727%)" offset="0.40625"/><stop stop-opacity="1" stop-color="rgb(78.619385%, 42.436218%, 81.936646%)" offset="0.410156"/><stop stop-opacity="1" stop-color="rgb(78.443909%, 42.549133%, 82.403564%)" offset="0.414063"/><stop stop-opacity="1" stop-color="rgb(78.268433%, 42.662048%, 82.870483%)" offset="0.417969"/><stop stop-opacity="1" stop-color="rgb(78.092957%, 42.776489%, 83.337402%)" offset="0.421875"/><stop stop-opacity="1" stop-color="rgb(77.91748%, 42.889404%, 83.804321%)" offset="0.425781"/><stop stop-opacity="1" stop-color="rgb(77.742004%, 43.003845%, 84.27124%)" offset="0.429688"/><stop stop-opacity="1" stop-color="rgb(77.566528%, 43.11676%, 84.736633%)" offset="0.433594"/><stop stop-opacity="1" stop-color="rgb(77.391052%, 43.229675%, 85.203552%)" offset="0.4375"/><stop stop-opacity="1" stop-color="rgb(77.215576%, 43.34259%, 85.670471%)" offset="0.441406"/><stop stop-opacity="1" stop-color="rgb(77.0401%, 43.457031%, 86.13739%)" offset="0.445313"/><stop stop-opacity="1" stop-color="rgb(76.864624%, 43.569946%, 86.604309%)" offset="0.449219"/><stop stop-opacity="1" stop-color="rgb(76.689148%, 43.684387%, 87.071228%)" offset="0.453125"/><stop stop-opacity="1" stop-color="rgb(76.513672%, 43.797302%, 87.538147%)" offset="0.457031"/><stop stop-opacity="1" stop-color="rgb(76.338196%, 43.910217%, 88.005066%)" offset="0.460938"/><stop stop-opacity="1" stop-color="rgb(76.16272%, 44.023132%, 88.471985%)" offset="0.464844"/><stop stop-opacity="1" stop-color="rgb(75.987244%, 44.137573%, 88.938904%)" offset="0.46875"/><stop stop-opacity="1" stop-color="rgb(75.811768%, 44.250488%, 89.405823%)" offset="0.472656"/><stop stop-opacity="1" stop-color="rgb(75.636292%, 44.363403%, 89.872742%)" offset="0.476563"/><stop stop-opacity="1" stop-color="rgb(75.460815%, 44.476318%, 90.339661%)" offset="0.480469"/><stop stop-opacity="1" stop-color="rgb(75.285339%, 44.590759%, 90.80658%)" offset="0.484375"/><stop stop-opacity="1" stop-color="rgb(75.109863%, 44.703674%, 91.273499%)" offset="0.488281"/><stop stop-opacity="1" stop-color="rgb(74.934387%, 44.818115%, 91.740417%)" offset="0.492188"/><stop stop-opacity="1" stop-color="rgb(74.758911%, 44.93103%, 92.207336%)" offset="0.496094"/><stop stop-opacity="1" stop-color="rgb(74.583435%, 45.043945%, 92.674255%)" offset="0.5"/><stop stop-opacity="1" stop-color="rgb(74.121094%, 45.262146%, 92.776489%)" offset="0.503906"/><stop stop-opacity="1" stop-color="rgb(73.658752%, 45.481873%, 92.880249%)" offset="0.507812"/><stop stop-opacity="1" stop-color="rgb(73.104858%, 45.733643%, 92.868042%)" offset="0.511719"/><stop stop-opacity="1" stop-color="rgb(72.55249%, 45.985413%, 92.855835%)" offset="0.515625"/><stop stop-opacity="1" stop-color="rgb(71.998596%, 46.237183%, 92.842102%)" offset="0.519531"/><stop stop-opacity="1" stop-color="rgb(71.446228%, 46.490479%, 92.829895%)" offset="0.523438"/><stop stop-opacity="1" stop-color="rgb(70.892334%, 46.742249%, 92.817688%)" offset="0.527344"/><stop stop-opacity="1" stop-color="rgb(70.339966%, 46.994019%, 92.805481%)" offset="0.53125"/><stop stop-opacity="1" stop-color="rgb(69.786072%, 47.245789%, 92.791748%)" offset="0.535156"/><stop stop-opacity="1" stop-color="rgb(69.233704%, 47.497559%, 92.779541%)" offset="0.539062"/><stop stop-opacity="1" stop-color="rgb(68.67981%, 47.749329%, 92.767334%)" offset="0.542969"/><stop stop-opacity="1" stop-color="rgb(68.127441%, 48.002625%, 92.755127%)" offset="0.546875"/><stop stop-opacity="1" stop-color="rgb(67.573547%, 48.254395%, 92.74292%)" offset="0.550781"/><stop stop-opacity="1" stop-color="rgb(67.019653%, 48.506165%, 92.730713%)" offset="0.554688"/><stop stop-opacity="1" stop-color="rgb(66.465759%, 48.757935%, 92.71698%)" offset="0.558594"/><stop stop-opacity="1" stop-color="rgb(65.913391%, 49.009705%, 92.704773%)" offset="0.5625"/><stop stop-opacity="1" stop-color="rgb(65.359497%, 49.261475%, 92.692566%)" offset="0.566406"/><stop stop-opacity="1" stop-color="rgb(64.807129%, 49.513245%, 92.680359%)" offset="0.570312"/><stop stop-opacity="1" stop-color="rgb(64.253235%, 49.765015%, 92.666626%)" offset="0.574219"/><stop stop-opacity="1" stop-color="rgb(63.700867%, 50.018311%, 92.654419%)" offset="0.578125"/><stop stop-opacity="1" stop-color="rgb(63.146973%, 50.270081%, 92.642212%)" offset="0.582031"/><stop stop-opacity="1" stop-color="rgb(62.594604%, 50.521851%, 92.630005%)" offset="0.585938"/><stop stop-opacity="1" stop-color="rgb(62.04071%, 50.773621%, 92.617798%)" offset="0.589844"/><stop stop-opacity="1" stop-color="rgb(61.488342%, 51.025391%, 92.605591%)" offset="0.59375"/><stop stop-opacity="1" stop-color="rgb(60.934448%, 51.277161%, 92.591858%)" offset="0.597656"/><stop stop-opacity="1" stop-color="rgb(60.38208%, 51.530457%, 92.579651%)" offset="0.601562"/><stop stop-opacity="1" stop-color="rgb(59.828186%, 51.782227%, 92.567444%)" offset="0.605469"/><stop stop-opacity="1" stop-color="rgb(59.274292%, 52.033997%, 92.555237%)" offset="0.609375"/><stop stop-opacity="1" stop-color="rgb(58.720398%, 52.285767%, 92.541504%)" offset="0.613281"/><stop stop-opacity="1" stop-color="rgb(58.16803%, 52.537537%, 92.529297%)" offset="0.617188"/><stop stop-opacity="1" stop-color="rgb(57.614136%, 52.789307%, 92.51709%)" offset="0.621094"/><stop stop-opacity="1" stop-color="rgb(57.061768%, 53.042603%, 92.504883%)" offset="0.625"/><stop stop-opacity="1" stop-color="rgb(56.507874%, 53.294373%, 92.49115%)" offset="0.628906"/><stop stop-opacity="1" stop-color="rgb(55.955505%, 53.546143%, 92.478943%)" offset="0.632812"/><stop stop-opacity="1" stop-color="rgb(55.401611%, 53.797913%, 92.466736%)" offset="0.636719"/><stop stop-opacity="1" stop-color="rgb(54.849243%, 54.049683%, 92.454529%)" offset="0.640625"/><stop stop-opacity="1" stop-color="rgb(54.295349%, 54.301453%, 92.442322%)" offset="0.644531"/><stop stop-opacity="1" stop-color="rgb(53.742981%, 54.554749%, 92.430115%)" offset="0.648438"/><stop stop-opacity="1" stop-color="rgb(53.189087%, 54.806519%, 92.416382%)" offset="0.652344"/><stop stop-opacity="1" stop-color="rgb(52.636719%, 55.058289%, 92.404175%)" offset="0.65625"/><stop stop-opacity="1" stop-color="rgb(52.082825%, 55.310059%, 92.391968%)" offset="0.660156"/><stop stop-opacity="1" stop-color="rgb(51.528931%, 55.561829%, 92.379761%)" offset="0.664062"/><stop stop-opacity="1" stop-color="rgb(50.975037%, 55.813599%, 92.366028%)" offset="0.667969"/><stop stop-opacity="1" stop-color="rgb(50.422668%, 56.065369%, 92.353821%)" offset="0.671875"/><stop stop-opacity="1" stop-color="rgb(49.868774%, 56.317139%, 92.341614%)" offset="0.675781"/><stop stop-opacity="1" stop-color="rgb(49.316406%, 56.570435%, 92.329407%)" offset="0.679688"/><stop stop-opacity="1" stop-color="rgb(48.762512%, 56.822205%, 92.3172%)" offset="0.683594"/><stop stop-opacity="1" stop-color="rgb(48.210144%, 57.073975%, 92.304993%)" offset="0.6875"/><stop stop-opacity="1" stop-color="rgb(47.65625%, 57.325745%, 92.29126%)" offset="0.691406"/><stop stop-opacity="1" stop-color="rgb(47.103882%, 57.577515%, 92.279053%)" offset="0.695312"/><stop stop-opacity="1" stop-color="rgb(46.549988%, 57.829285%, 92.266846%)" offset="0.699219"/><stop stop-opacity="1" stop-color="rgb(45.99762%, 58.082581%, 92.254639%)" offset="0.703125"/><stop stop-opacity="1" stop-color="rgb(45.443726%, 58.334351%, 92.240906%)" offset="0.707031"/><stop stop-opacity="1" stop-color="rgb(44.889832%, 58.586121%, 92.228699%)" offset="0.710938"/><stop stop-opacity="1" stop-color="rgb(44.335938%, 58.837891%, 92.216492%)" offset="0.714844"/><stop stop-opacity="1" stop-color="rgb(43.783569%, 59.089661%, 92.204285%)" offset="0.71875"/><stop stop-opacity="1" stop-color="rgb(43.229675%, 59.341431%, 92.192078%)" offset="0.722656"/><stop stop-opacity="1" stop-color="rgb(42.677307%, 59.594727%, 92.179871%)" offset="0.726562"/><stop stop-opacity="1" stop-color="rgb(42.123413%, 59.846497%, 92.166138%)" offset="0.730469"/><stop stop-opacity="1" stop-color="rgb(41.571045%, 60.098267%, 92.153931%)" offset="0.734375"/><stop stop-opacity="1" stop-color="rgb(41.017151%, 60.350037%, 92.141724%)" offset="0.738281"/><stop stop-opacity="1" stop-color="rgb(40.464783%, 60.601807%, 92.129517%)" offset="0.742188"/><stop stop-opacity="1" stop-color="rgb(39.910889%, 60.853577%, 92.115784%)" offset="0.746094"/><stop stop-opacity="1" stop-color="rgb(39.358521%, 61.106873%, 92.103577%)" offset="0.75"/><stop stop-opacity="1" stop-color="rgb(38.804626%, 61.358643%, 92.09137%)" offset="0.753906"/><stop stop-opacity="1" stop-color="rgb(38.252258%, 61.610413%, 92.079163%)" offset="0.757812"/><stop stop-opacity="1" stop-color="rgb(37.698364%, 61.862183%, 92.066956%)" offset="0.761719"/><stop stop-opacity="1" stop-color="rgb(37.14447%, 62.113953%, 92.054749%)" offset="0.765625"/><stop stop-opacity="1" stop-color="rgb(36.590576%, 62.365723%, 92.041016%)" offset="0.769531"/><stop stop-opacity="1" stop-color="rgb(36.038208%, 62.617493%, 92.028809%)" offset="0.773438"/><stop stop-opacity="1" stop-color="rgb(35.484314%, 62.869263%, 92.016602%)" offset="0.777344"/><stop stop-opacity="1" stop-color="rgb(34.931946%, 63.122559%, 92.004395%)" offset="0.78125"/><stop stop-opacity="1" stop-color="rgb(34.378052%, 63.374329%, 91.990662%)" offset="0.785156"/><stop stop-opacity="1" stop-color="rgb(33.825684%, 63.626099%, 91.978455%)" offset="0.789062"/><stop stop-opacity="1" stop-color="rgb(33.27179%, 63.877869%, 91.966248%)" offset="0.792969"/><stop stop-opacity="1" stop-color="rgb(32.719421%, 64.129639%, 91.954041%)" offset="0.796875"/><stop stop-opacity="1" stop-color="rgb(32.165527%, 64.381409%, 91.941833%)" offset="0.800781"/><stop stop-opacity="1" stop-color="rgb(31.613159%, 64.634705%, 91.929626%)" offset="0.804688"/><stop stop-opacity="1" stop-color="rgb(31.059265%, 64.886475%, 91.915894%)" offset="0.808594"/><stop stop-opacity="1" stop-color="rgb(30.506897%, 65.138245%, 91.903687%)" offset="0.8125"/><stop stop-opacity="1" stop-color="rgb(29.953003%, 65.390015%, 91.891479%)" offset="0.816406"/><stop stop-opacity="1" stop-color="rgb(29.399109%, 65.641785%, 91.879272%)" offset="0.820312"/><stop stop-opacity="1" stop-color="rgb(28.845215%, 65.893555%, 91.86554%)" offset="0.824219"/><stop stop-opacity="1" stop-color="rgb(28.292847%, 66.146851%, 91.853333%)" offset="0.828125"/><stop stop-opacity="1" stop-color="rgb(27.738953%, 66.398621%, 91.841125%)" offset="0.832031"/><stop stop-opacity="1" stop-color="rgb(27.186584%, 66.650391%, 91.828918%)" offset="0.835938"/><stop stop-opacity="1" stop-color="rgb(26.63269%, 66.902161%, 91.816711%)" offset="0.839844"/><stop stop-opacity="1" stop-color="rgb(26.080322%, 67.153931%, 91.804504%)" offset="0.84375"/><stop stop-opacity="1" stop-color="rgb(25.526428%, 67.405701%, 91.790771%)" offset="0.847656"/><stop stop-opacity="1" stop-color="rgb(24.97406%, 67.658997%, 91.778564%)" offset="0.851562"/><stop stop-opacity="1" stop-color="rgb(24.420166%, 67.910767%, 91.766357%)" offset="0.855469"/><stop stop-opacity="1" stop-color="rgb(23.867798%, 68.162537%, 91.75415%)" offset="0.859375"/><stop stop-opacity="1" stop-color="rgb(23.313904%, 68.414307%, 91.740417%)" offset="0.863281"/><stop stop-opacity="1" stop-color="rgb(22.761536%, 68.666077%, 91.72821%)" offset="0.867188"/><stop stop-opacity="1" stop-color="rgb(22.207642%, 68.917847%, 91.716003%)" offset="0.871094"/><stop stop-opacity="1" stop-color="rgb(21.653748%, 69.169617%, 91.703796%)" offset="0.875"/><stop stop-opacity="1" stop-color="rgb(21.099854%, 69.421387%, 91.690063%)" offset="0.878906"/><stop stop-opacity="1" stop-color="rgb(20.547485%, 69.674683%, 91.677856%)" offset="0.882812"/><stop stop-opacity="1" stop-color="rgb(19.993591%, 69.926453%, 91.665649%)" offset="0.886719"/><stop stop-opacity="1" stop-color="rgb(19.441223%, 70.178223%, 91.653442%)" offset="0.890625"/><stop stop-opacity="1" stop-color="rgb(18.887329%, 70.429993%, 91.641235%)" offset="0.894531"/><stop stop-opacity="1" stop-color="rgb(18.334961%, 70.681763%, 91.629028%)" offset="0.898438"/><stop stop-opacity="1" stop-color="rgb(17.781067%, 70.933533%, 91.615295%)" offset="0.902344"/><stop stop-opacity="1" stop-color="rgb(17.228699%, 71.186829%, 91.603088%)" offset="0.90625"/><stop stop-opacity="1" stop-color="rgb(16.674805%, 71.438599%, 91.590881%)" offset="0.910156"/><stop stop-opacity="1" stop-color="rgb(16.122437%, 71.690369%, 91.578674%)" offset="0.914062"/><stop stop-opacity="1" stop-color="rgb(15.568542%, 71.942139%, 91.564941%)" offset="0.917969"/><stop stop-opacity="1" stop-color="rgb(15.016174%, 72.193909%, 91.552734%)" offset="0.921875"/><stop stop-opacity="1" stop-color="rgb(14.46228%, 72.445679%, 91.540527%)" offset="0.925781"/><stop stop-opacity="1" stop-color="rgb(13.908386%, 72.698975%, 91.52832%)" offset="0.929688"/><stop stop-opacity="1" stop-color="rgb(13.354492%, 72.950745%, 91.516113%)" offset="0.933594"/><stop stop-opacity="1" stop-color="rgb(12.802124%, 73.202515%, 91.503906%)" offset="0.9375"/><stop stop-opacity="1" stop-color="rgb(12.24823%, 73.454285%, 91.490173%)" offset="0.941406"/><stop stop-opacity="1" stop-color="rgb(11.695862%, 73.706055%, 91.477966%)" offset="0.945312"/><stop stop-opacity="1" stop-color="rgb(11.141968%, 73.957825%, 91.465759%)" offset="0.949219"/><stop stop-opacity="1" stop-color="rgb(10.5896%, 74.211121%, 91.453552%)" offset="0.953125"/><stop stop-opacity="1" stop-color="rgb(10.035706%, 74.462891%, 91.439819%)" offset="0.957031"/><stop stop-opacity="1" stop-color="rgb(9.483337%, 74.714661%, 91.427612%)" offset="0.960938"/><stop stop-opacity="1" stop-color="rgb(8.929443%, 74.966431%, 91.415405%)" offset="0.964844"/><stop stop-opacity="1" stop-color="rgb(8.377075%, 75.218201%, 91.403198%)" offset="0.96875"/><stop stop-opacity="1" stop-color="rgb(8.287048%, 75.257874%, 91.400146%)" offset="1"/></linearGradient></defs><rect x="-37.5" width="450" fill="#ffffff" y="-37.499999" height="449.999989" fill-opacity="1"/><rect x="-37.5" width="450" fill="#ffffff" y="-37.499999" height="449.999989" fill-opacity="1"/><rect x="-37.5" width="450" fill="#ffffff" y="-37.499999" height="449.999989" fill-opacity="1"/><g clip-path="url(#c6ff561c4f)"><g clip-path="url(#76c9543451)"><path fill="url(#5b321d4782)" d="M 112.519531 115.609375 L 112.519531 259.117188 L 262.480469 259.117188 L 262.480469 115.609375 Z M 112.519531 115.609375 " fill-rule="nonzero"/></g></g><g fill="#7782ac" fill-opacity="1"><g transform="translate(73.755611, 103.76335)"><g><path d="M 0.78125 0 L 7.484375 -18.203125 L 9.796875 -18.203125 L 16.484375 0 L 14.171875 0 L 12.5 -4.6875 L 4.765625 -4.6875 L 3.0625 0 Z M 5.40625 -6.453125 L 11.859375 -6.453125 L 8.625 -15.4375 Z M 5.40625 -6.453125 "/></g></g></g><g fill="#7782ac" fill-opacity="1"><g transform="translate(91.014445, 103.76335)"><g><path d="M 1.921875 0 L 1.921875 -18.203125 L 13.1875 -18.203125 L 13.1875 -16.40625 L 4.109375 -16.40625 L 4.109375 -10.0625 L 12.40625 -10.0625 L 12.40625 -8.296875 L 4.109375 -8.296875 L 4.109375 -1.796875 L 13.1875 -1.796875 L 13.1875 0 Z M 1.921875 0 "/></g></g></g><g fill="#7782ac" fill-opacity="1"><g transform="translate(105.674051, 103.76335)"><g><path d="M 6.453125 0 L 6.453125 -6.921875 L 0.515625 -18.203125 L 2.984375 -18.203125 L 7.546875 -9 L 12.09375 -18.203125 L 14.53125 -18.203125 L 8.625 -6.921875 L 8.625 0 Z M 6.453125 0 "/></g></g></g><g fill="#7782ac" fill-opacity="1"><g transform="translate(120.723546, 103.76335)"><g><path d="M 8.5 0.3125 C 7.25 0.3125 6.117188 0.0664062 5.109375 -0.421875 C 4.097656 -0.921875 3.285156 -1.691406 2.671875 -2.734375 C 2.066406 -3.773438 1.765625 -5.097656 1.765625 -6.703125 L 1.765625 -18.203125 L 3.953125 -18.203125 L 3.953125 -6.6875 C 3.953125 -4.914062 4.375 -3.628906 5.21875 -2.828125 C 6.070312 -2.035156 7.179688 -1.640625 8.546875 -1.640625 C 9.921875 -1.640625 11.023438 -2.035156 11.859375 -2.828125 C 12.691406 -3.628906 13.109375 -4.914062 13.109375 -6.6875 L 13.109375 -18.203125 L 15.28125 -18.203125 L 15.28125 -6.703125 C 15.28125 -5.097656 14.976562 -3.773438 14.375 -2.734375 C 13.769531 -1.691406 12.957031 -0.921875 11.9375 -0.421875 C 10.914062 0.0664062 9.769531 0.3125 8.5 0.3125 Z M 8.5 0.3125 "/></g></g></g><g fill="#7782ac" fill-opacity="1"><g transform="translate(137.774441, 103.76335)"><g><path d="M 1.921875 0 L 1.921875 -18.203125 L 7.796875 -18.203125 C 9.222656 -18.203125 10.382812 -17.96875 11.28125 -17.5 C 12.1875 -17.03125 12.851562 -16.390625 13.28125 -15.578125 C 13.71875 -14.765625 13.9375 -13.863281 13.9375 -12.875 C 13.9375 -11.726562 13.628906 -10.691406 13.015625 -9.765625 C 12.398438 -8.847656 11.441406 -8.203125 10.140625 -7.828125 L 14.125 0 L 11.546875 0 L 7.859375 -7.515625 L 4.109375 -7.515625 L 4.109375 0 Z M 4.109375 -9.234375 L 7.640625 -9.234375 C 9.046875 -9.234375 10.066406 -9.570312 10.703125 -10.25 C 11.347656 -10.925781 11.671875 -11.789062 11.671875 -12.84375 C 11.671875 -13.914062 11.351562 -14.769531 10.71875 -15.40625 C 10.09375 -16.039062 9.0625 -16.359375 7.625 -16.359375 L 4.109375 -16.359375 Z M 4.109375 -9.234375 "/></g></g></g><g fill="#7782ac" fill-opacity="1"><g transform="translate(153.187823, 103.76335)"><g><path d="M 1.921875 0 L 1.921875 -18.203125 L 4.109375 -18.203125 L 4.109375 -1.734375 L 12.578125 -1.734375 L 12.578125 0 Z M 1.921875 0 "/></g></g></g><g fill="#7782ac" fill-opacity="1"><g transform="translate(166.833735, 103.76335)"><g/></g></g><g fill="#7782ac" fill-opacity="1"><g transform="translate(173.72167, 103.76335)"><g><path d="M 1.921875 0 L 1.921875 -18.203125 L 4.109375 -18.203125 L 4.109375 -1.734375 L 12.578125 -1.734375 L 12.578125 0 Z M 1.921875 0 "/></g></g></g><g fill="#7782ac" fill-opacity="1"><g transform="translate(187.367581, 103.76335)"><g><path d="M 1.921875 0 L 1.921875 -18.203125 L 4.109375 -18.203125 L 4.109375 0 Z M 1.921875 0 "/></g></g></g><g fill="#7782ac" fill-opacity="1"><g transform="translate(193.397771, 103.76335)"><g><path d="M 1.921875 0 L 1.921875 -18.203125 L 4.109375 -18.203125 L 13.8125 -3.609375 L 13.8125 -18.203125 L 15.984375 -18.203125 L 15.984375 0 L 13.8125 0 L 4.109375 -14.59375 L 4.109375 0 Z M 1.921875 0 "/></g></g></g><g fill="#7782ac" fill-opacity="1"><g transform="translate(211.3064, 103.76335)"><g><path d="M 1.921875 0 L 1.921875 -18.203125 L 4.109375 -18.203125 L 4.109375 -9.953125 L 11.703125 -18.203125 L 14.453125 -18.203125 L 7.703125 -10.953125 L 14.5625 0 L 11.90625 0 L 6.140625 -9.25 L 4.109375 -7.09375 L 4.109375 0 Z M 1.921875 0 "/></g></g></g><g fill="#7782ac" fill-opacity="1"><g transform="translate(226.433863, 103.76335)"><g/></g></g><g fill="#7782ac" fill-opacity="1"><g transform="translate(233.321798, 103.76335)"><g><path d="M 1.921875 0 L 1.921875 -18.203125 L 4.109375 -18.203125 L 4.109375 -9.953125 L 11.703125 -18.203125 L 14.453125 -18.203125 L 7.703125 -10.953125 L 14.5625 0 L 11.90625 0 L 6.140625 -9.25 L 4.109375 -7.09375 L 4.109375 0 Z M 1.921875 0 "/></g></g></g><g fill="#7782ac" fill-opacity="1"><g transform="translate(248.449261, 103.76335)"><g><path d="M 1.921875 0 L 1.921875 -18.203125 L 4.109375 -18.203125 L 4.109375 0 Z M 1.921875 0 "/></g></g></g><g fill="#7782ac" fill-opacity="1"><g transform="translate(254.47945, 103.76335)"><g><path d="M 7.71875 0.3125 C 6.382812 0.3125 5.222656 0.0703125 4.234375 -0.40625 C 3.242188 -0.894531 2.476562 -1.570312 1.9375 -2.4375 C 1.40625 -3.3125 1.140625 -4.316406 1.140625 -5.453125 L 3.4375 -5.453125 C 3.4375 -4.742188 3.597656 -4.085938 3.921875 -3.484375 C 4.253906 -2.890625 4.734375 -2.414062 5.359375 -2.0625 C 5.992188 -1.707031 6.78125 -1.53125 7.71875 -1.53125 C 8.945312 -1.53125 9.898438 -1.820312 10.578125 -2.40625 C 11.253906 -3 11.59375 -3.738281 11.59375 -4.625 C 11.59375 -5.351562 11.4375 -5.9375 11.125 -6.375 C 10.8125 -6.820312 10.390625 -7.179688 9.859375 -7.453125 C 9.335938 -7.734375 8.734375 -7.976562 8.046875 -8.1875 C 7.359375 -8.394531 6.644531 -8.628906 5.90625 -8.890625 C 4.5 -9.378906 3.457031 -9.984375 2.78125 -10.703125 C 2.101562 -11.421875 1.765625 -12.359375 1.765625 -13.515625 C 1.742188 -14.484375 1.96875 -15.34375 2.4375 -16.09375 C 2.90625 -16.851562 3.566406 -17.445312 4.421875 -17.875 C 5.285156 -18.300781 6.304688 -18.515625 7.484375 -18.515625 C 8.648438 -18.515625 9.660156 -18.296875 10.515625 -17.859375 C 11.367188 -17.429688 12.035156 -16.832031 12.515625 -16.0625 C 12.992188 -15.300781 13.242188 -14.4375 13.265625 -13.46875 L 10.96875 -13.46875 C 10.96875 -13.96875 10.835938 -14.460938 10.578125 -14.953125 C 10.316406 -15.453125 9.921875 -15.859375 9.390625 -16.171875 C 8.867188 -16.484375 8.207031 -16.640625 7.40625 -16.640625 C 6.414062 -16.660156 5.601562 -16.410156 4.96875 -15.890625 C 4.34375 -15.367188 4.03125 -14.648438 4.03125 -13.734375 C 4.03125 -12.953125 4.25 -12.351562 4.6875 -11.9375 C 5.132812 -11.519531 5.753906 -11.175781 6.546875 -10.90625 C 7.347656 -10.632812 8.269531 -10.328125 9.3125 -9.984375 C 10.175781 -9.671875 10.953125 -9.304688 11.640625 -8.890625 C 12.335938 -8.472656 12.878906 -7.9375 13.265625 -7.28125 C 13.660156 -6.625 13.859375 -5.785156 13.859375 -4.765625 C 13.859375 -3.890625 13.628906 -3.066406 13.171875 -2.296875 C 12.722656 -1.523438 12.046875 -0.894531 11.140625 -0.40625 C 10.234375 0.0703125 9.09375 0.3125 7.71875 0.3125 Z M 7.71875 0.3125 "/></g></g></g><g fill="#7782ac" fill-opacity="1"><g transform="translate(269.502944, 103.76335)"><g><path d="M 0.78125 0 L 7.484375 -18.203125 L 9.796875 -18.203125 L 16.484375 0 L 14.171875 0 L 12.5 -4.6875 L 4.765625 -4.6875 L 3.0625 0 Z M 5.40625 -6.453125 L 11.859375 -6.453125 L 8.625 -15.4375 Z M 5.40625 -6.453125 "/></g></g></g><g fill="#7782ac" fill-opacity="1"><g transform="translate(286.761778, 103.76335)"><g><path d="M 1.921875 0 L 1.921875 -18.203125 L 4.109375 -18.203125 L 4.109375 -1.734375 L 12.578125 -1.734375 L 12.578125 0 Z M 1.921875 0 "/></g></g></g><g fill="#7782ac" fill-opacity="1"><g transform="translate(300.407689, 103.76335)"><g><path d="M 6.1875 0 L 6.1875 -16.40625 L 0.75 -16.40625 L 0.75 -18.203125 L 13.8125 -18.203125 L 13.8125 -16.40625 L 8.375 -16.40625 L 8.375 0 Z M 6.1875 0 "/></g></g></g><g fill="#7782ac" fill-opacity="1"><g transform="translate(110.80959, 274.93636)"><g><path d="M 3.09375 0 C 2.8125 -0.03125 2.378906 -0.046875 1.796875 -0.046875 C 1.296875 -0.046875 0.867188 -0.03125 0.515625 0 L 0.515625 -0.40625 C 1.003906 -0.40625 1.25 -0.578125 1.25 -0.921875 L 1.25 -4.09375 C 1.25 -4.582031 1.070312 -4.828125 0.71875 -4.828125 L 0.71875 -5.203125 C 1.257812 -5.398438 1.765625 -5.675781 2.234375 -6.03125 L 2.234375 -4.203125 C 2.847656 -5.378906 3.492188 -5.96875 4.171875 -5.96875 C 4.734375 -5.96875 5.070312 -5.675781 5.1875 -5.09375 C 5.1875 -4.726562 5.109375 -4.46875 4.953125 -4.3125 C 4.773438 -4.769531 4.460938 -5 4.015625 -5 C 3.390625 -4.988281 2.796875 -4.519531 2.234375 -3.59375 L 2.234375 -0.921875 C 2.234375 -0.578125 2.519531 -0.40625 3.09375 -0.40625 Z M 3.09375 0 "/></g></g></g><g fill="#7782ac" fill-opacity="1"><g transform="translate(120.575996, 274.93636)"><g><path d="M 2.984375 0.125 C 2.117188 0.125 1.488281 -0.148438 1.09375 -0.703125 C 0.707031 -1.253906 0.515625 -1.925781 0.515625 -2.71875 C 0.515625 -3.539062 0.765625 -4.257812 1.265625 -4.875 C 1.765625 -5.488281 2.421875 -5.796875 3.234375 -5.796875 C 4.484375 -5.796875 5.207031 -5 5.40625 -3.40625 L 1.59375 -2.578125 C 1.707031 -1.210938 2.328125 -0.53125 3.453125 -0.53125 C 4.265625 -0.53125 4.835938 -0.859375 5.171875 -1.515625 L 5.453125 -1.3125 C 4.941406 -0.351562 4.117188 0.125 2.984375 0.125 Z M 1.5625 -2.953125 L 3.59375 -3.40625 C 4.082031 -3.519531 4.328125 -3.800781 4.328125 -4.25 C 4.253906 -4.945312 3.867188 -5.296875 3.171875 -5.296875 C 2.109375 -5.191406 1.570312 -4.410156 1.5625 -2.953125 Z M 1.5625 -2.953125 "/></g></g></g><g fill="#7782ac" fill-opacity="1"><g transform="translate(130.793573, 274.93636)"><g><path d="M 2.4375 -0.609375 C 2.75 -0.609375 3.1875 -0.78125 3.75 -1.125 L 3.75 -3.265625 C 3.59375 -2.835938 3.179688 -2.570312 2.515625 -2.46875 C 1.847656 -2.363281 1.515625 -2.039062 1.515625 -1.5 C 1.515625 -0.90625 1.820312 -0.609375 2.4375 -0.609375 Z M 4.625 0.125 C 4.09375 0.125 3.8125 -0.140625 3.78125 -0.671875 C 3 -0.140625 2.398438 0.125 1.984375 0.125 C 1.054688 0.125 0.59375 -0.398438 0.59375 -1.453125 C 0.59375 -2.316406 1.117188 -2.832031 2.171875 -3 C 3.234375 -3.164062 3.769531 -3.632812 3.78125 -4.40625 C 3.78125 -4.90625 3.488281 -5.15625 2.90625 -5.15625 C 2.3125 -5.15625 1.988281 -4.847656 1.9375 -4.234375 C 1.9375 -4.160156 1.941406 -4.109375 1.953125 -4.078125 C 1.847656 -4.054688 1.757812 -4.046875 1.6875 -4.046875 C 1.21875 -4.046875 0.976562 -4.238281 0.96875 -4.625 C 1.019531 -5.34375 1.640625 -5.71875 2.828125 -5.75 C 4.160156 -5.75 4.828125 -5.175781 4.828125 -4.03125 L 4.828125 -1.1875 C 4.828125 -0.769531 4.921875 -0.5625 5.109375 -0.5625 C 5.234375 -0.5625 5.46875 -0.648438 5.8125 -0.828125 L 6 -0.46875 C 5.394531 -0.0703125 4.9375 0.125 4.625 0.125 Z M 4.625 0.125 "/></g></g></g><g fill="#7782ac" fill-opacity="1"><g transform="translate(140.952559, 274.93636)"><g><path d="M 3.03125 0 C 2.695312 -0.03125 2.28125 -0.046875 1.78125 -0.046875 C 1.28125 -0.046875 0.859375 -0.03125 0.515625 0 L 0.515625 -0.40625 C 1.023438 -0.40625 1.28125 -0.578125 1.28125 -0.921875 L 1.28125 -7.28125 C 1.269531 -7.882812 1.070312 -8.1875 0.6875 -8.1875 L 0.6875 -8.5625 C 1.332031 -8.707031 1.867188 -8.929688 2.296875 -9.234375 C 2.273438 -8.753906 2.265625 -8.390625 2.265625 -8.140625 L 2.265625 -0.921875 C 2.265625 -0.578125 2.519531 -0.40625 3.03125 -0.40625 Z M 3.03125 0 "/></g></g></g><g fill="#7782ac" fill-opacity="1"><g transform="translate(148.750213, 274.93636)"><g/></g></g><g fill="#7782ac" fill-opacity="1"><g transform="translate(156.465837, 274.93636)"><g><path d="M 2.984375 0.125 C 2.117188 0.125 1.488281 -0.148438 1.09375 -0.703125 C 0.707031 -1.253906 0.515625 -1.925781 0.515625 -2.71875 C 0.515625 -3.539062 0.765625 -4.257812 1.265625 -4.875 C 1.765625 -5.488281 2.421875 -5.796875 3.234375 -5.796875 C 4.484375 -5.796875 5.207031 -5 5.40625 -3.40625 L 1.59375 -2.578125 C 1.707031 -1.210938 2.328125 -0.53125 3.453125 -0.53125 C 4.265625 -0.53125 4.835938 -0.859375 5.171875 -1.515625 L 5.453125 -1.3125 C 4.941406 -0.351562 4.117188 0.125 2.984375 0.125 Z M 1.5625 -2.953125 L 3.59375 -3.40625 C 4.082031 -3.519531 4.328125 -3.800781 4.328125 -4.25 C 4.253906 -4.945312 3.867188 -5.296875 3.171875 -5.296875 C 2.109375 -5.191406 1.570312 -4.410156 1.5625 -2.953125 Z M 1.5625 -2.953125 "/></g></g></g><g fill="#7782ac" fill-opacity="1"><g transform="translate(166.683413, 274.93636)"><g><path d="M 2.265625 0.125 C 1.578125 0.125 1.050781 -0.0078125 0.6875 -0.28125 C 0.695312 -0.382812 0.703125 -0.488281 0.703125 -0.59375 C 0.703125 -0.875 0.664062 -1.148438 0.59375 -1.421875 L 0.9375 -1.5 C 1.070312 -0.8125 1.582031 -0.453125 2.46875 -0.421875 C 3.125 -0.460938 3.460938 -0.757812 3.484375 -1.3125 C 3.484375 -1.90625 3.007812 -2.320312 2.0625 -2.5625 C 1.113281 -2.800781 0.640625 -3.316406 0.640625 -4.109375 C 0.722656 -5.171875 1.375 -5.734375 2.59375 -5.796875 C 3.15625 -5.796875 3.609375 -5.703125 3.953125 -5.515625 C 3.992188 -5.117188 4.054688 -4.757812 4.140625 -4.4375 L 3.796875 -4.328125 C 3.578125 -4.929688 3.148438 -5.238281 2.515625 -5.25 C 1.847656 -5.21875 1.492188 -4.953125 1.453125 -4.453125 C 1.460938 -3.867188 1.9375 -3.476562 2.875 -3.28125 C 3.8125 -3.09375 4.285156 -2.570312 4.296875 -1.71875 C 4.234375 -0.5625 3.554688 0.0507812 2.265625 0.125 Z M 2.265625 0.125 "/></g></g></g><g fill="#7782ac" fill-opacity="1"><g transform="translate(175.881458, 274.93636)"><g><path d="M 2.5 0.125 C 1.519531 0.125 1.03125 -0.414062 1.03125 -1.5 L 1.03125 -5.21875 L 0.296875 -5.21875 L 0.296875 -5.515625 C 1.160156 -5.710938 1.632812 -6.296875 1.71875 -7.265625 L 2.015625 -7.203125 L 2.015625 -5.8125 L 3.5 -5.8125 L 3.375 -5.21875 L 2.015625 -5.21875 L 2.015625 -2.1875 C 2.015625 -1.125 2.359375 -0.59375 3.046875 -0.59375 C 3.273438 -0.59375 3.507812 -0.675781 3.75 -0.84375 L 3.921875 -0.625 C 3.554688 -0.144531 3.082031 0.101562 2.5 0.125 Z M 2.5 0.125 "/></g></g></g><g fill="#7782ac" fill-opacity="1"><g transform="translate(184.212316, 274.93636)"><g><path d="M 2.4375 -0.609375 C 2.75 -0.609375 3.1875 -0.78125 3.75 -1.125 L 3.75 -3.265625 C 3.59375 -2.835938 3.179688 -2.570312 2.515625 -2.46875 C 1.847656 -2.363281 1.515625 -2.039062 1.515625 -1.5 C 1.515625 -0.90625 1.820312 -0.609375 2.4375 -0.609375 Z M 4.625 0.125 C 4.09375 0.125 3.8125 -0.140625 3.78125 -0.671875 C 3 -0.140625 2.398438 0.125 1.984375 0.125 C 1.054688 0.125 0.59375 -0.398438 0.59375 -1.453125 C 0.59375 -2.316406 1.117188 -2.832031 2.171875 -3 C 3.234375 -3.164062 3.769531 -3.632812 3.78125 -4.40625 C 3.78125 -4.90625 3.488281 -5.15625 2.90625 -5.15625 C 2.3125 -5.15625 1.988281 -4.847656 1.9375 -4.234375 C 1.9375 -4.160156 1.941406 -4.109375 1.953125 -4.078125 C 1.847656 -4.054688 1.757812 -4.046875 1.6875 -4.046875 C 1.21875 -4.046875 0.976562 -4.238281 0.96875 -4.625 C 1.019531 -5.34375 1.640625 -5.71875 2.828125 -5.75 C 4.160156 -5.75 4.828125 -5.175781 4.828125 -4.03125 L 4.828125 -1.1875 C 4.828125 -0.769531 4.921875 -0.5625 5.109375 -0.5625 C 5.234375 -0.5625 5.46875 -0.648438 5.8125 -0.828125 L 6 -0.46875 C 5.394531 -0.0703125 4.9375 0.125 4.625 0.125 Z M 4.625 0.125 "/></g></g></g><g fill="#7782ac" fill-opacity="1"><g transform="translate(194.371299, 274.93636)"><g><path d="M 2.5 0.125 C 1.519531 0.125 1.03125 -0.414062 1.03125 -1.5 L 1.03125 -5.21875 L 0.296875 -5.21875 L 0.296875 -5.515625 C 1.160156 -5.710938 1.632812 -6.296875 1.71875 -7.265625 L 2.015625 -7.203125 L 2.015625 -5.8125 L 3.5 -5.8125 L 3.375 -5.21875 L 2.015625 -5.21875 L 2.015625 -2.1875 C 2.015625 -1.125 2.359375 -0.59375 3.046875 -0.59375 C 3.273438 -0.59375 3.507812 -0.675781 3.75 -0.84375 L 3.921875 -0.625 C 3.554688 -0.144531 3.082031 0.101562 2.5 0.125 Z M 2.5 0.125 "/></g></g></g><g fill="#7782ac" fill-opacity="1"><g transform="translate(202.702156, 274.93636)"><g><path d="M 2.984375 0.125 C 2.117188 0.125 1.488281 -0.148438 1.09375 -0.703125 C 0.707031 -1.253906 0.515625 -1.925781 0.515625 -2.71875 C 0.515625 -3.539062 0.765625 -4.257812 1.265625 -4.875 C 1.765625 -5.488281 2.421875 -5.796875 3.234375 -5.796875 C 4.484375 -5.796875 5.207031 -5 5.40625 -3.40625 L 1.59375 -2.578125 C 1.707031 -1.210938 2.328125 -0.53125 3.453125 -0.53125 C 4.265625 -0.53125 4.835938 -0.859375 5.171875 -1.515625 L 5.453125 -1.3125 C 4.941406 -0.351562 4.117188 0.125 2.984375 0.125 Z M 1.5625 -2.953125 L 3.59375 -3.40625 C 4.082031 -3.519531 4.328125 -3.800781 4.328125 -4.25 C 4.253906 -4.945312 3.867188 -5.296875 3.171875 -5.296875 C 2.109375 -5.191406 1.570312 -4.410156 1.5625 -2.953125 Z M 1.5625 -2.953125 "/></g></g></g><g fill="#7782ac" fill-opacity="1"><g transform="translate(212.919733, 274.93636)"><g/></g></g><g fill="#7782ac" fill-opacity="1"><g transform="translate(220.635362, 274.93636)"><g><path d="M 2.4375 -0.609375 C 2.75 -0.609375 3.1875 -0.78125 3.75 -1.125 L 3.75 -3.265625 C 3.59375 -2.835938 3.179688 -2.570312 2.515625 -2.46875 C 1.847656 -2.363281 1.515625 -2.039062 1.515625 -1.5 C 1.515625 -0.90625 1.820312 -0.609375 2.4375 -0.609375 Z M 4.625 0.125 C 4.09375 0.125 3.8125 -0.140625 3.78125 -0.671875 C 3 -0.140625 2.398438 0.125 1.984375 0.125 C 1.054688 0.125 0.59375 -0.398438 0.59375 -1.453125 C 0.59375 -2.316406 1.117188 -2.832031 2.171875 -3 C 3.234375 -3.164062 3.769531 -3.632812 3.78125 -4.40625 C 3.78125 -4.90625 3.488281 -5.15625 2.90625 -5.15625 C 2.3125 -5.15625 1.988281 -4.847656 1.9375 -4.234375 C 1.9375 -4.160156 1.941406 -4.109375 1.953125 -4.078125 C 1.847656 -4.054688 1.757812 -4.046875 1.6875 -4.046875 C 1.21875 -4.046875 0.976562 -4.238281 0.96875 -4.625 C 1.019531 -5.34375 1.640625 -5.71875 2.828125 -5.75 C 4.160156 -5.75 4.828125 -5.175781 4.828125 -4.03125 L 4.828125 -1.1875 C 4.828125 -0.769531 4.921875 -0.5625 5.109375 -0.5625 C 5.234375 -0.5625 5.46875 -0.648438 5.8125 -0.828125 L 6 -0.46875 C 5.394531 -0.0703125 4.9375 0.125 4.625 0.125 Z M 4.625 0.125 "/></g></g></g><g fill="#7782ac" fill-opacity="1"><g transform="translate(230.79435, 274.93636)"><g><path d="M 2.578125 -1.984375 C 3.421875 -1.984375 3.84375 -2.554688 3.84375 -3.703125 C 3.8125 -4.796875 3.40625 -5.359375 2.625 -5.390625 C 1.84375 -5.390625 1.453125 -4.816406 1.453125 -3.671875 C 1.515625 -2.554688 1.890625 -1.992188 2.578125 -1.984375 Z M 2.203125 3.28125 C 1.015625 3.28125 0.40625 2.894531 0.375 2.125 C 0.375 1.675781 0.585938 1.242188 1.015625 0.828125 L 1.296875 0.921875 C 1.191406 1.148438 1.132812 1.421875 1.125 1.734375 C 1.144531 2.296875 1.5625 2.597656 2.375 2.640625 C 2.988281 2.640625 3.515625 2.539062 3.953125 2.34375 C 4.390625 2.144531 4.609375 1.757812 4.609375 1.1875 C 4.609375 0.664062 4.039062 0.40625 2.90625 0.40625 C 1.445312 0.40625 0.71875 0.0703125 0.71875 -0.59375 C 0.757812 -1.03125 1.007812 -1.425781 1.46875 -1.78125 C 0.789062 -2.175781 0.453125 -2.785156 0.453125 -3.609375 C 0.523438 -5.015625 1.269531 -5.742188 2.6875 -5.796875 C 3.25 -5.796875 3.6875 -5.726562 4 -5.59375 C 4.132812 -5.582031 4.265625 -5.578125 4.390625 -5.578125 C 4.847656 -5.578125 5.253906 -5.640625 5.609375 -5.765625 C 5.492188 -5.515625 5.320312 -5.34375 5.09375 -5.25 C 4.863281 -5.15625 4.671875 -5.109375 4.515625 -5.109375 C 4.722656 -4.785156 4.835938 -4.316406 4.859375 -3.703125 C 4.796875 -2.390625 4.023438 -1.695312 2.546875 -1.625 C 2.273438 -1.625 2.03125 -1.640625 1.8125 -1.671875 C 1.6875 -1.460938 1.625 -1.226562 1.625 -0.96875 C 1.625 -0.695312 2.140625 -0.5625 3.171875 -0.5625 C 4.773438 -0.5625 5.578125 -0.0976562 5.578125 0.828125 C 5.441406 2.460938 4.316406 3.28125 2.203125 3.28125 Z M 2.203125 3.28125 "/></g></g></g><g fill="#7782ac" fill-opacity="1"><g transform="translate(241.093963, 274.93636)"><g><path d="M 2.984375 0.125 C 2.117188 0.125 1.488281 -0.148438 1.09375 -0.703125 C 0.707031 -1.253906 0.515625 -1.925781 0.515625 -2.71875 C 0.515625 -3.539062 0.765625 -4.257812 1.265625 -4.875 C 1.765625 -5.488281 2.421875 -5.796875 3.234375 -5.796875 C 4.484375 -5.796875 5.207031 -5 5.40625 -3.40625 L 1.59375 -2.578125 C 1.707031 -1.210938 2.328125 -0.53125 3.453125 -0.53125 C 4.265625 -0.53125 4.835938 -0.859375 5.171875 -1.515625 L 5.453125 -1.3125 C 4.941406 -0.351562 4.117188 0.125 2.984375 0.125 Z M 1.5625 -2.953125 L 3.59375 -3.40625 C 4.082031 -3.519531 4.328125 -3.800781 4.328125 -4.25 C 4.253906 -4.945312 3.867188 -5.296875 3.171875 -5.296875 C 2.109375 -5.191406 1.570312 -4.410156 1.5625 -2.953125 Z M 1.5625 -2.953125 "/></g></g></g><g fill="#7782ac" fill-opacity="1"><g transform="translate(251.311545, 274.93636)"><g><path d="M 6.53125 0 C 6.207031 -0.03125 5.804688 -0.046875 5.328125 -0.046875 C 4.859375 -0.046875 4.453125 -0.03125 4.109375 0 L 4.109375 -0.40625 C 4.585938 -0.40625 4.828125 -0.578125 4.828125 -0.921875 L 4.828125 -3.8125 C 4.828125 -4.695312 4.457031 -5.140625 3.71875 -5.140625 C 3.21875 -5.140625 2.710938 -4.9375 2.203125 -4.53125 L 2.203125 -0.921875 C 2.203125 -0.578125 2.445312 -0.40625 2.9375 -0.40625 L 2.9375 0 C 2.601562 -0.03125 2.203125 -0.046875 1.734375 -0.046875 C 1.265625 -0.046875 0.859375 -0.03125 0.515625 0 L 0.515625 -0.40625 C 0.992188 -0.40625 1.234375 -0.578125 1.234375 -0.921875 L 1.234375 -4.015625 C 1.222656 -4.617188 1.023438 -4.921875 0.640625 -4.921875 L 0.640625 -5.28125 C 1.273438 -5.425781 1.804688 -5.644531 2.234375 -5.9375 C 2.210938 -5.570312 2.203125 -5.226562 2.203125 -4.90625 C 2.910156 -5.5 3.601562 -5.796875 4.28125 -5.796875 C 4.851562 -5.796875 5.25 -5.628906 5.46875 -5.296875 C 5.695312 -4.972656 5.8125 -4.453125 5.8125 -3.734375 L 5.8125 -0.921875 C 5.8125 -0.578125 6.050781 -0.40625 6.53125 -0.40625 Z M 6.53125 0 "/></g></g></g><g fill="#7782ac" fill-opacity="1"><g transform="translate(262.214674, 274.93636)"><g><path d="M 2.890625 0.125 C 2.242188 0.125 1.6875 -0.125 1.21875 -0.625 C 0.75 -1.125 0.515625 -1.789062 0.515625 -2.625 C 0.515625 -3.488281 0.769531 -4.234375 1.28125 -4.859375 C 1.800781 -5.484375 2.503906 -5.796875 3.390625 -5.796875 C 4.398438 -5.765625 4.914062 -5.535156 4.9375 -5.109375 C 4.9375 -4.828125 4.816406 -4.628906 4.578125 -4.515625 C 4.359375 -5.015625 3.914062 -5.265625 3.25 -5.265625 C 2.882812 -5.265625 2.515625 -5.085938 2.140625 -4.734375 C 1.773438 -4.378906 1.59375 -3.773438 1.59375 -2.921875 C 1.59375 -2.273438 1.757812 -1.726562 2.09375 -1.28125 C 2.425781 -0.832031 2.875 -0.609375 3.4375 -0.609375 C 3.957031 -0.628906 4.441406 -0.785156 4.890625 -1.078125 L 5.125 -0.671875 C 4.457031 -0.140625 3.710938 0.125 2.890625 0.125 Z M 2.890625 0.125 "/></g></g></g><g fill="#7782ac" fill-opacity="1"><g transform="translate(271.8346, 274.93636)"><g><path d="M 0.734375 3.25 C 0.148438 3.238281 -0.164062 3.007812 -0.21875 2.5625 C -0.21875 2.332031 -0.140625 2.160156 0.015625 2.046875 C 0.140625 2.304688 0.347656 2.441406 0.640625 2.453125 C 1.179688 2.453125 1.6875 1.894531 2.15625 0.78125 L 2.5 0 C 1.28125 -3.257812 0.609375 -4.953125 0.484375 -5.078125 C 0.359375 -5.203125 0.207031 -5.265625 0.03125 -5.265625 L 0.03125 -5.671875 C 0.5625 -5.628906 0.941406 -5.609375 1.171875 -5.609375 C 1.398438 -5.609375 1.804688 -5.628906 2.390625 -5.671875 L 2.390625 -5.265625 C 2.085938 -5.265625 1.894531 -5.238281 1.8125 -5.1875 C 1.738281 -5.144531 1.703125 -5.050781 1.703125 -4.90625 C 1.703125 -4.789062 2.144531 -3.550781 3.03125 -1.1875 C 4.019531 -3.476562 4.515625 -4.722656 4.515625 -4.921875 C 4.515625 -5.066406 4.460938 -5.160156 4.359375 -5.203125 C 4.265625 -5.242188 4.101562 -5.265625 3.875 -5.265625 L 3.875 -5.671875 C 4.226562 -5.628906 4.566406 -5.609375 4.890625 -5.609375 C 5.148438 -5.609375 5.476562 -5.628906 5.875 -5.671875 L 5.875 -5.265625 C 5.582031 -5.265625 5.378906 -5.144531 5.265625 -4.90625 C 5.035156 -4.375 4.304688 -2.734375 3.078125 0.015625 C 2.679688 1.242188 2.320312 2.085938 2 2.546875 C 1.675781 3.015625 1.253906 3.25 0.734375 3.25 Z M 0.734375 3.25 "/></g></g></g></svg>